<svg width="150" height="31" viewBox="0 0 150 31" fill="none" xmlns="http://www.w3.org/2000/svg">
<g clip-path="url(#clip0_35_179)">
<path d="M52.9011 25.8967C52.9011 27.032 51.9929 28.0158 50.782 28.0158C49.6468 28.0158 48.663 27.1076 48.663 25.8967V17.1177H38.3703V25.8211C38.3703 26.9563 37.4622 27.9401 36.2513 27.9401C35.1161 27.9401 34.1322 27.032 34.1322 25.8211V5.16011C34.1322 4.02489 35.0404 3.04104 36.2513 3.04104C37.3865 3.04104 38.3703 3.94921 38.3703 5.16011V13.3337H48.7387V5.16011C48.7387 4.02489 49.6468 3.04104 50.8577 3.04104C51.9929 3.04104 52.9768 3.94921 52.9768 5.16011L52.9011 25.8967ZM64.0262 10.7605C70.1564 10.7605 71.2916 15.4527 71.2916 17.9502C71.2916 19.3125 71.2916 20.8261 69.0969 20.8261H60.0908C60.0908 23.3993 61.9072 24.6102 64.329 24.6102C65.9183 24.6102 67.0535 24.0804 67.886 23.4749C68.2644 23.2479 68.5671 23.0965 69.0212 23.0965C69.9294 23.0965 70.6862 23.8534 70.6862 24.7615C70.6862 25.367 70.3835 25.8211 70.0807 26.1238C69.4753 26.7292 67.5833 28.0915 64.2533 28.0915C59.2583 28.0915 56.0797 25.367 56.0797 19.3125C56.1554 13.8634 59.107 10.7605 64.0262 10.7605ZM60.1665 17.5718H67.3562C67.3562 15.8312 66.3724 14.0905 64.0262 14.0905C61.9072 14.0905 60.3936 15.3014 60.1665 17.5718ZM77.6488 12.9553V21.3559C77.6488 23.0209 78.2543 24.6102 80.9031 24.6102C83.552 24.6102 84.1574 23.0209 84.1574 21.3559V12.9553C84.1574 11.8957 84.9899 10.9876 86.1251 10.9876C87.1847 10.9876 88.0928 11.8201 88.0928 12.9553V21.3559C88.0928 24.9129 86.7306 28.1672 80.9788 28.1672C75.1514 28.1672 73.7891 24.9129 73.7891 21.3559V12.9553C73.7891 11.8957 74.6216 10.9876 75.7568 10.9876C76.8164 10.9876 77.6488 11.8201 77.6488 12.9553ZM95.4339 13.1066C96.115 11.6687 97.8557 10.7605 99.3693 10.7605C100.353 10.7605 101.186 11.593 101.186 12.5769C101.186 13.5607 100.353 14.3932 99.3693 14.3932C96.8719 14.3932 95.4339 15.9825 95.4339 18.4043V25.8967C95.4339 26.9563 94.6014 27.8645 93.4662 27.8645C92.4067 27.8645 91.4985 27.032 91.4985 25.8967V12.9553C91.4985 11.8957 92.331 10.9876 93.4662 10.9876C94.5257 10.9876 95.4339 11.8201 95.4339 12.9553V13.1066ZM109.965 10.7605C116.095 10.7605 117.23 15.4527 117.23 17.9502C117.23 19.3125 117.23 20.8261 115.035 20.8261H106.029C106.029 23.3993 107.846 24.6102 110.267 24.6102C111.857 24.6102 112.992 24.0804 113.824 23.4749C114.203 23.2479 114.506 23.0965 114.96 23.0965C115.868 23.0965 116.625 23.8534 116.625 24.7615C116.625 25.367 116.322 25.8211 116.019 26.1238C115.414 26.7292 113.522 28.0915 110.192 28.0915C105.197 28.0915 102.018 25.367 102.018 19.3125C102.17 13.8634 105.045 10.7605 109.965 10.7605ZM106.181 17.5718H113.37C113.37 15.8312 112.386 14.0905 110.04 14.0905C107.846 14.0905 106.332 15.3014 106.181 17.5718ZM130.55 27.1833L125.177 19.9179L124.041 20.8261V26.0481C124.041 27.1076 123.209 27.9401 122.074 27.9401C120.938 27.9401 120.106 27.1076 120.106 26.0481V3.79785C120.106 2.73832 120.938 1.90582 122.074 1.90582C123.133 1.90582 124.041 2.73832 124.041 3.79785V16.588L130.626 11.4416C131.08 11.0632 131.458 10.9876 131.912 10.9876C132.972 10.9876 133.804 11.8201 133.804 12.8796C133.804 13.4094 133.577 14.0148 133.047 14.3932L128.28 18.0259L133.577 24.9886C133.88 25.367 133.956 25.8211 133.956 26.1238C133.956 27.1833 133.123 28.0158 132.064 28.0158C131.382 27.9401 130.853 27.6374 130.55 27.1833ZM139.178 15.6041C138.799 15.8312 138.496 15.9825 138.118 15.9825C137.21 15.9825 136.453 15.2257 136.453 14.3175C136.453 13.9391 136.604 13.485 136.907 13.1066C137.891 11.9714 139.707 10.7605 142.81 10.7605C147.275 10.7605 150 12.9553 150 16.815V26.0481C150 27.1076 149.168 27.9401 148.108 27.9401C147.048 27.9401 146.216 27.1076 146.216 26.0481C145.232 27.6374 143.643 28.1672 141.448 28.1672C137.891 28.1672 135.545 25.9724 135.545 22.7181C135.545 19.3882 138.269 17.6475 141.372 17.6475H146.14V16.9664C146.14 15.3014 144.929 14.2418 142.81 14.2418C141.145 14.2418 140.01 14.923 139.178 15.6041ZM146.065 21.6586V20.6747H141.826C140.237 20.6747 139.329 21.4316 139.329 22.7181C139.329 24.0804 140.313 24.9129 142.356 24.9129C144.248 24.9129 146.065 23.702 146.065 21.6586Z" fill="#009CD3"/>
<path d="M27.3209 26.2751L22.4773 21.4316C24.5207 19.1611 25.7316 16.1339 25.7316 12.8796C25.7316 5.76556 19.9798 0.0137939 12.8658 0.0137939C5.75177 0.0137939 0 5.76556 0 12.8796C0 19.9936 5.75177 25.7454 12.8658 25.7454C15.0605 25.7454 17.1039 25.2156 18.9203 24.2318L24.1423 29.4538C24.9748 30.2862 26.4127 30.2862 27.2452 29.4538C28.1534 28.5456 28.1534 27.1833 27.3209 26.2751ZM3.70838 12.8796C3.70838 7.80895 7.87084 3.64649 12.9415 3.64649C14.8335 3.64649 16.4985 4.17626 18.0121 5.16011L12.7144 13.7121L10.444 10.8362C10.1413 10.3821 9.6115 10.1551 9.08174 10.1551C8.70333 10.1551 8.32492 10.3064 8.0222 10.5335C7.26539 11.1389 7.11403 12.1985 7.71947 12.9553L11.4279 17.7989C11.7306 18.2529 12.2603 18.48 12.7901 18.48H12.8658C13.3956 18.48 13.9253 18.1773 14.2281 17.6475L20.5096 7.65759C21.5691 9.17121 22.1746 10.9876 22.1746 12.9553C22.1746 18.0259 18.0121 22.1884 12.9415 22.1884C7.87084 22.1127 3.70838 17.9502 3.70838 12.8796Z" fill="#EF7001"/>
</g>
<defs>
<clipPath id="clip0_35_179">
<rect width="150" height="30.3" fill="white"/>
</clipPath>
</defs>
</svg>
