<svg width="25" height="25" viewBox="0 0 25 25" fill="none" xmlns="http://www.w3.org/2000/svg">
<path d="M14.5 18.5001C14.7653 18.5001 15.0196 18.3948 15.2071 18.2073C15.3947 18.0197 15.5 17.7654 15.5 17.5001V15.5001C15.5 15.2349 15.3947 14.9806 15.2071 14.793C15.0196 14.6055 14.7653 14.5001 14.5 14.5001C14.2348 14.5001 13.9805 14.6055 13.7929 14.793C13.6054 14.9806 13.5 15.2349 13.5 15.5001V17.5001C13.5 17.7654 13.6054 18.0197 13.7929 18.2073C13.9805 18.3948 14.2348 18.5001 14.5 18.5001ZM10.5 18.5001C10.7653 18.5001 11.0196 18.3948 11.2071 18.2073C11.3947 18.0197 11.5 17.7654 11.5 17.5001V15.5001C11.5 15.2349 11.3947 14.9806 11.2071 14.793C11.0196 14.6055 10.7653 14.5001 10.5 14.5001C10.2348 14.5001 9.98047 14.6055 9.79293 14.793C9.60539 14.9806 9.50004 15.2349 9.50004 15.5001V17.5001C9.50004 17.7654 9.60539 18.0197 9.79293 18.2073C9.98047 18.3948 10.2348 18.5001 10.5 18.5001ZM19.5 6.50015H18.12L16.39 3.05015C16.3372 2.9232 16.2587 2.80852 16.1595 2.71328C16.0603 2.61803 15.9426 2.54427 15.8136 2.49659C15.6846 2.44892 15.5472 2.42836 15.4099 2.4362C15.2726 2.44404 15.1384 2.48011 15.0157 2.54216C14.8929 2.60421 14.7843 2.6909 14.6966 2.79682C14.6089 2.90274 14.544 3.0256 14.506 3.15774C14.4679 3.28988 14.4575 3.42845 14.4754 3.5648C14.4933 3.70114 14.5391 3.83232 14.61 3.95015L15.88 6.50015H9.12004L10.39 3.95015C10.4871 3.71706 10.4924 3.45587 10.4049 3.21904C10.3173 2.9822 10.1434 2.78725 9.9181 2.67331C9.69277 2.55938 9.43268 2.53491 9.19005 2.60481C8.94742 2.67471 8.74022 2.8338 8.61004 3.05015L6.88004 6.50015H5.50004C4.79323 6.5109 4.11291 6.7709 3.57909 7.23428C3.04526 7.69767 2.69221 8.33468 2.58221 9.03296C2.4722 9.73124 2.61231 10.4459 2.97782 11.051C3.34333 11.6561 3.91076 12.1126 4.58004 12.3401L5.32004 19.8001C5.39466 20.5427 5.74338 21.2308 6.29811 21.7301C6.85284 22.2293 7.57374 22.5039 8.32004 22.5001H16.7C17.4463 22.5039 18.1672 22.2293 18.722 21.7301C19.2767 21.2308 19.6254 20.5427 19.7 19.8001L20.44 12.3401C21.1108 12.1119 21.6791 11.6537 22.0443 11.0466C22.4096 10.4395 22.5482 9.72278 22.4356 9.02329C22.323 8.3238 21.9665 7.68674 21.4292 7.22492C20.8919 6.76311 20.2085 6.50636 19.5 6.50015ZM17.69 19.6001C17.6652 19.8477 17.5489 20.077 17.364 20.2435C17.1791 20.4099 16.9388 20.5014 16.69 20.5001H8.31004C8.06127 20.5014 7.82097 20.4099 7.63606 20.2435C7.45115 20.077 7.33491 19.8477 7.31004 19.6001L6.60004 12.5001H18.4L17.69 19.6001ZM19.5 10.5001H5.50004C5.23482 10.5001 4.98047 10.3948 4.79293 10.2073C4.60539 10.0197 4.50004 9.76537 4.50004 9.50015C4.50004 9.23493 4.60539 8.98058 4.79293 8.79304C4.98047 8.60551 5.23482 8.50015 5.50004 8.50015H19.5C19.7653 8.50015 20.0196 8.60551 20.2071 8.79304C20.3947 8.98058 20.5 9.23493 20.5 9.50015C20.5 9.76537 20.3947 10.0197 20.2071 10.2073C20.0196 10.3948 19.7653 10.5001 19.5 10.5001Z" fill="#E9EEE3"/>
</svg>
