<?xml version="1.0" standalone="no"?>
<!DOCTYPE svg PUBLIC "-//W3C//DTD SVG 20010904//EN"
 "http://www.w3.org/TR/2001/REC-SVG-20010904/DTD/svg10.dtd">
<svg version="1.0" xmlns="http://www.w3.org/2000/svg"
 width="449.000000pt" height="449.000000pt" viewBox="0 0 449.000000 449.000000"
 preserveAspectRatio="xMidYMid meet">
<metadata>
Created by potrace 1.14, written by Peter Selinger 2001-2017
</metadata>
<g transform="translate(0.000000,449.000000) scale(0.100000,-0.100000)"
fill="#000000" stroke="none">
<path d="M2089 4486 c-2 -2 -35 -6 -74 -10 -67 -6 -98 -10 -155 -21 -14 -3
-38 -8 -55 -11 -98 -17 -225 -57 -410 -128 -16 -6 -81 -38 -142 -70 -425 -219
-760 -563 -973 -1001 -108 -221 -193 -502 -215 -715 -4 -36 -9 -76 -11 -90
-11 -79 -3 -438 11 -490 2 -8 7 -35 10 -60 49 -357 233 -774 474 -1073 62 -76
203 -223 271 -282 181 -155 407 -294 615 -377 79 -32 247 -86 285 -93 19 -3
43 -8 52 -11 9 -3 27 -7 40 -9 13 -3 46 -9 73 -14 134 -26 440 -35 605 -18
231 25 524 114 724 220 270 144 550 377 735 612 34 44 69 89 78 99 70 86 188
301 258 470 95 231 158 553 158 821 1 78 -12 282 -18 305 -3 8 -7 33 -10 55
-5 40 -6 46 -26 145 -18 87 -76 272 -115 367 -118 285 -277 525 -489 738 -349
350 -772 558 -1280 630 -47 7 -410 16 -416 11z"/>
</g>
</svg>
